<svg width="62" height="62" viewBox="0 0 62 62" fill="none" xmlns="http://www.w3.org/2000/svg">
<path d="M23.25 12.9166C22.5649 12.9166 21.9078 13.1888 21.4233 13.6733C20.9389 14.1578 20.6667 14.8148 20.6667 15.5C20.6667 16.1851 20.9389 16.8422 21.4233 17.3267C21.9078 17.8111 22.5649 18.0833 23.25 18.0833C23.9352 18.0833 24.5923 17.8111 25.0767 17.3267C25.5612 16.8422 25.8334 16.1851 25.8334 15.5C25.8334 14.8148 25.5612 14.1578 25.0767 13.6733C24.5923 13.1888 23.9352 12.9166 23.25 12.9166ZM15.9392 12.9166C16.4729 11.404 17.4627 10.0942 18.7721 9.16769C20.0815 8.24119 21.646 7.74365 23.25 7.74365C24.8541 7.74365 26.4186 8.24119 27.728 9.16769C29.0374 10.0942 30.0272 11.404 30.5609 12.9166H49.0834C49.7685 12.9166 50.4256 13.1888 50.9101 13.6733C51.3945 14.1578 51.6667 14.8148 51.6667 15.5C51.6667 16.1851 51.3945 16.8422 50.9101 17.3267C50.4256 17.8111 49.7685 18.0833 49.0834 18.0833H30.5609C30.0272 19.5959 29.0374 20.9058 27.728 21.8323C26.4186 22.7588 24.8541 23.2563 23.25 23.2563C21.646 23.2563 20.0815 22.7588 18.7721 21.8323C17.4627 20.9058 16.4729 19.5959 15.9392 18.0833H12.9167C12.2316 18.0833 11.5745 17.8111 11.09 17.3267C10.6055 16.8422 10.3334 16.1851 10.3334 15.5C10.3334 14.8148 10.6055 14.1578 11.09 13.6733C11.5745 13.1888 12.2316 12.9166 12.9167 12.9166H15.9392ZM38.75 28.4167C38.0649 28.4167 37.4078 28.6888 36.9233 29.1733C36.4389 29.6578 36.1667 30.3148 36.1667 31C36.1667 31.6851 36.4389 32.3422 36.9233 32.8267C37.4078 33.3111 38.0649 33.5833 38.75 33.5833C39.4352 33.5833 40.0923 33.3111 40.5767 32.8267C41.0612 32.3422 41.3334 31.6851 41.3334 31C41.3334 30.3148 41.0612 29.6578 40.5767 29.1733C40.0923 28.6888 39.4352 28.4167 38.75 28.4167ZM31.4392 28.4167C31.9729 26.904 32.9627 25.5942 34.2721 24.6677C35.5815 23.7412 37.146 23.2437 38.75 23.2437C40.3541 23.2437 41.9186 23.7412 43.228 24.6677C44.5374 25.5942 45.5271 26.904 46.0609 28.4167H49.0834C49.7685 28.4167 50.4256 28.6888 50.9101 29.1733C51.3945 29.6578 51.6667 30.3148 51.6667 31C51.6667 31.6851 51.3945 32.3422 50.9101 32.8267C50.4256 33.3111 49.7685 33.5833 49.0834 33.5833H46.0609C45.5271 35.0959 44.5374 36.4058 43.228 37.3323C41.9186 38.2588 40.3541 38.7563 38.75 38.7563C37.146 38.7563 35.5815 38.2588 34.2721 37.3323C32.9627 36.4058 31.9729 35.0959 31.4392 33.5833H12.9167C12.2316 33.5833 11.5745 33.3111 11.09 32.8267C10.6055 32.3422 10.3334 31.6851 10.3334 31C10.3334 30.3148 10.6055 29.6578 11.09 29.1733C11.5745 28.6888 12.2316 28.4167 12.9167 28.4167H31.4392ZM23.25 43.9166C22.5649 43.9166 21.9078 44.1888 21.4233 44.6733C20.9389 45.1578 20.6667 45.8148 20.6667 46.5C20.6667 47.1851 20.9389 47.8422 21.4233 48.3267C21.9078 48.8111 22.5649 49.0833 23.25 49.0833C23.9352 49.0833 24.5923 48.8111 25.0767 48.3267C25.5612 47.8422 25.8334 47.1851 25.8334 46.5C25.8334 45.8148 25.5612 45.1578 25.0767 44.6733C24.5923 44.1888 23.9352 43.9166 23.25 43.9166ZM15.9392 43.9166C16.4729 42.404 17.4627 41.0942 18.7721 40.1677C20.0815 39.2412 21.646 38.7437 23.25 38.7437C24.8541 38.7437 26.4186 39.2412 27.728 40.1677C29.0374 41.0942 30.0272 42.404 30.5609 43.9166H49.0834C49.7685 43.9166 50.4256 44.1888 50.9101 44.6733C51.3945 45.1578 51.6667 45.8148 51.6667 46.5C51.6667 47.1851 51.3945 47.8422 50.9101 48.3267C50.4256 48.8111 49.7685 49.0833 49.0834 49.0833H30.5609C30.0272 50.5959 29.0374 51.9058 27.728 52.8323C26.4186 53.7588 24.8541 54.2563 23.25 54.2563C21.646 54.2563 20.0815 53.7588 18.7721 52.8323C17.4627 51.9058 16.4729 50.5959 15.9392 49.0833H12.9167C12.2316 49.0833 11.5745 48.8111 11.09 48.3267C10.6055 47.8422 10.3334 47.1851 10.3334 46.5C10.3334 45.8148 10.6055 45.1578 11.09 44.6733C11.5745 44.1888 12.2316 43.9166 12.9167 43.9166H15.9392Z" fill="white"/>
</svg>
