<svg width="22" height="22" viewBox="0 0 22 22" fill="none" xmlns="http://www.w3.org/2000/svg">
<g clip-path="url(#clip0_92_712)">
<path d="M0 10.6667C0 7.83769 1.12381 5.12458 3.12419 3.12419C5.12458 1.12381 7.83769 0 10.6667 0C13.4956 0 16.2088 1.12381 18.2091 3.12419C20.2095 5.12458 21.3333 7.83769 21.3333 10.6667C21.3333 13.4956 20.2095 16.2088 18.2091 18.2091C16.2088 20.2095 13.4956 21.3333 10.6667 21.3333C7.83769 21.3333 5.12458 20.2095 3.12419 18.2091C1.12381 16.2088 0 13.4956 0 10.6667ZM10 1.436C9.10667 1.708 8.22 2.52933 7.484 3.90933C7.24151 4.36813 7.03295 4.84407 6.86 5.33333H10V1.436ZM5.45333 5.33333C5.67556 4.62509 5.96116 3.93831 6.30667 3.28133C6.53721 2.84541 6.80345 2.42932 7.10267 2.03733C5.45067 2.72244 4.02934 3.86616 3.00667 5.33333H5.45333ZM4.67733 10C4.71733 8.83067 4.86133 7.70933 5.09333 6.66667H2.232C1.73482 7.7134 1.43815 8.84401 1.35733 10H4.67733ZM6.46267 6.66667C6.20042 7.75974 6.04943 8.87653 6.012 10H10V6.66667H6.46267ZM11.3333 6.66667V10H15.32C15.2831 8.87658 15.1325 7.75978 14.8707 6.66667H11.3333ZM6.01333 11.3333C6.05033 12.4568 6.20087 13.5736 6.46267 14.6667H10V11.3333H6.01333ZM11.3333 11.3333V14.6667H14.8707C15.12 13.6467 15.2787 12.5227 15.3213 11.3333H11.3333ZM6.86 16C7.044 16.5147 7.25333 16.992 7.484 17.424C8.22 18.804 9.108 19.624 10 19.8973V16H6.86ZM7.10267 19.296C6.80343 18.904 6.53719 18.4879 6.30667 18.052C5.96117 17.395 5.67557 16.7082 5.45333 16H3.00667C4.02929 17.4672 5.45063 18.611 7.10267 19.296ZM5.09333 14.6667C4.85222 13.5708 4.71296 12.4549 4.67733 11.3333H1.35733C1.44 12.52 1.74533 13.644 2.232 14.6667H5.09333ZM14.2307 19.296C15.8827 18.611 17.304 17.4672 18.3267 16H15.88C15.6578 16.7082 15.3722 17.395 15.0267 18.052C14.7962 18.488 14.5299 18.9041 14.2307 19.296ZM11.3333 16V19.8973C12.2267 19.6253 13.1133 18.804 13.8493 17.424C14.08 16.992 14.2893 16.5147 14.4733 16H11.3333ZM16.24 14.6667H19.1013C19.588 13.644 19.8933 12.52 19.976 11.3333H16.656C16.6204 12.4549 16.4811 13.5708 16.24 14.6667ZM19.976 10C19.8952 8.84402 19.5985 7.71341 19.1013 6.66667H16.24C16.472 7.70933 16.616 8.83067 16.656 10H19.976ZM15.0267 3.28133C15.356 3.9 15.6427 4.588 15.88 5.33333H18.3267C17.304 3.86611 15.8827 2.72237 14.2307 2.03733C14.5213 2.416 14.788 2.83467 15.0267 3.28133ZM14.4733 5.33333C14.3004 4.84406 14.0918 4.36812 13.8493 3.90933C13.1133 2.52933 12.2267 1.70933 11.3333 1.436V5.33333H14.4733Z" fill="#00104A"/>
</g>
<defs>
<clipPath id="clip0_92_712">
<rect width="21.3333" height="21.3333" fill="white"/>
</clipPath>
</defs>
</svg>
