<svg width="41" height="41" viewBox="0 0 41 41" fill="none" xmlns="http://www.w3.org/2000/svg">
<path fill-rule="evenodd" clip-rule="evenodd" d="M15.375 22.2083C16.2812 22.2083 17.1502 22.5683 17.7909 23.2091C18.4317 23.8498 18.7917 24.7188 18.7917 25.625V32.4583C18.7917 33.3645 18.4317 34.2335 17.7909 34.8743C17.1502 35.515 16.2812 35.875 15.375 35.875H8.54167C7.63551 35.875 6.76647 35.515 6.12572 34.8743C5.48497 34.2335 5.125 33.3645 5.125 32.4583V25.625C5.125 24.7188 5.48497 23.8498 6.12572 23.2091C6.76647 22.5683 7.63551 22.2083 8.54167 22.2083H15.375ZM32.4583 22.2083C33.3203 22.2081 34.1506 22.5336 34.7826 23.1197C35.4147 23.7058 35.8018 24.5092 35.8665 25.3688L35.875 25.625V32.4583C35.8753 33.3203 35.5497 34.1506 34.9636 34.7826C34.3775 35.4147 33.5741 35.8018 32.7146 35.8665L32.4583 35.875H25.625C24.763 35.8753 23.9328 35.5497 23.3007 34.9636C22.6687 34.3775 22.2815 33.5741 22.2169 32.7146L22.2083 32.4583V25.625C22.2081 24.763 22.5336 23.9328 23.1197 23.3007C23.7058 22.6687 24.5092 22.2815 25.3688 22.2169L25.625 22.2083H32.4583ZM15.375 25.625H8.54167V32.4583H15.375V25.625ZM32.4583 25.625H25.625V32.4583H32.4583V25.625ZM32.4583 5.125C33.3203 5.12473 34.1506 5.45028 34.7826 6.03639C35.4147 6.6225 35.8018 7.42586 35.8665 8.28542L35.875 8.54167V15.375C35.8753 16.237 35.5497 17.0672 34.9636 17.6993C34.3775 18.3313 33.5741 18.7185 32.7146 18.7831L32.4583 18.7917H25.625C24.763 18.7919 23.9328 18.4664 23.3007 17.8803C22.6687 17.2942 22.2815 16.4908 22.2169 15.6312L22.2083 15.375V8.54167C22.2081 7.67968 22.5336 6.84945 23.1197 6.2174C23.7058 5.58535 24.5092 5.19819 25.3688 5.13354L25.625 5.125H32.4583ZM15.375 5.125C16.237 5.12473 17.0672 5.45028 17.6993 6.03639C18.3313 6.6225 18.7185 7.42586 18.7831 8.28542L18.7917 8.54167V15.375C18.7919 16.237 18.4664 17.0672 17.8803 17.6993C17.2942 18.3313 16.4908 18.7185 15.6312 18.7831L15.375 18.7917H8.54167C7.67968 18.7919 6.84945 18.4664 6.2174 17.8803C5.58535 17.2942 5.19819 16.4908 5.13354 15.6312L5.125 15.375V8.54167C5.12473 7.67968 5.45028 6.84945 6.03639 6.2174C6.6225 5.58535 7.42586 5.19819 8.28542 5.13354L8.54167 5.125H15.375ZM32.4583 8.54167H25.625V15.375H32.4583V8.54167ZM15.375 8.54167H8.54167V15.375H15.375V8.54167Z" fill="#00104A"/>
</svg>
