<svg width="28" height="28" viewBox="0 0 28 28" fill="none" xmlns="http://www.w3.org/2000/svg">
<path d="M13.9964 9.33135C11.5481 9.33135 9.55012 11.4293 9.55012 14C9.55012 16.5707 11.5481 18.6687 13.9964 18.6687C16.4447 18.6687 18.4426 16.5707 18.4426 14C18.4426 11.4293 16.4447 9.33135 13.9964 9.33135ZM27.3318 14C27.3318 12.0667 27.3485 10.1509 27.2451 8.2211C27.1417 5.97958 26.6547 3.99024 25.0937 2.35113C23.5293 0.708519 21.6381 0.200677 19.5033 0.0921032C17.6621 -0.0164701 15.8376 0.00104176 13.9997 0.00104176C12.1585 0.00104176 10.334 -0.0164701 8.4961 0.0921032C6.36136 0.200677 4.46678 0.712022 2.90576 2.35113C1.34139 3.99374 0.857743 5.97958 0.754342 8.2211C0.65094 10.1544 0.667618 12.0702 0.667618 14C0.667618 15.9298 0.65094 17.8491 0.754342 19.7789C0.857743 22.0204 1.34473 24.0098 2.90576 25.6489C4.47012 27.2915 6.36136 27.7993 8.4961 27.9079C10.3373 28.0165 12.1618 27.999 13.9997 27.999C15.8409 27.999 17.6655 28.0165 19.5033 27.9079C21.6381 27.7993 23.5326 27.288 25.0937 25.6489C26.658 24.0063 27.1417 22.0204 27.2451 19.7789C27.3518 17.8491 27.3318 15.9333 27.3318 14ZM13.9964 21.1834C10.2106 21.1834 7.15521 17.9752 7.15521 14C7.15521 10.0248 10.2106 6.81665 13.9964 6.81665C17.7822 6.81665 20.8375 10.0248 20.8375 14C20.8375 17.9752 17.7822 21.1834 13.9964 21.1834ZM21.1177 8.20008C20.2338 8.20008 19.52 7.45057 19.52 6.52245C19.52 5.59432 20.2338 4.84481 21.1177 4.84481C22.0016 4.84481 22.7154 5.59432 22.7154 6.52245C22.7157 6.74284 22.6746 6.96111 22.5944 7.16478C22.5142 7.36844 22.3965 7.55349 22.2481 7.70933C22.0997 7.86517 21.9234 7.98873 21.7295 8.07294C21.5355 8.15715 21.3276 8.20036 21.1177 8.20008Z" fill="#00104A" fill-opacity="0.5"/>
</svg>
