<svg width="41" height="41" viewBox="0 0 41 41" fill="none" xmlns="http://www.w3.org/2000/svg">
<path d="M13.6667 15.3752C13.1826 15.3752 12.7772 15.2112 12.4503 14.8832C12.1235 14.5552 11.9595 14.1497 11.9583 13.6668C11.9572 13.1839 12.1212 12.7785 12.4503 12.4505C12.7795 12.1225 13.1849 11.9585 13.6667 11.9585H34.1667C34.6507 11.9585 35.0567 12.1225 35.3847 12.4505C35.7127 12.7785 35.8761 13.1839 35.875 13.6668C35.8739 14.1497 35.7099 14.5557 35.383 14.8849C35.0561 15.214 34.6507 15.3774 34.1667 15.3752H13.6667ZM13.6667 22.2085C13.1826 22.2085 12.7772 22.0445 12.4503 21.7165C12.1235 21.3885 11.9595 20.9831 11.9583 20.5002C11.9572 20.0173 12.1212 19.6118 12.4503 19.2838C12.7795 18.9558 13.1849 18.7918 13.6667 18.7918H34.1667C34.6507 18.7918 35.0567 18.9558 35.3847 19.2838C35.7127 19.6118 35.8761 20.0173 35.875 20.5002C35.8739 20.9831 35.7099 21.3891 35.383 21.7182C35.0561 22.0473 34.6507 22.2108 34.1667 22.2085H13.6667ZM13.6667 29.0418C13.1826 29.0418 12.7772 28.8778 12.4503 28.5498C12.1235 28.2218 11.9595 27.8164 11.9583 27.3335C11.9572 26.8506 12.1212 26.4452 12.4503 26.1172C12.7795 25.7892 13.1849 25.6252 13.6667 25.6252H34.1667C34.6507 25.6252 35.0567 25.7892 35.3847 26.1172C35.7127 26.4452 35.8761 26.8506 35.875 27.3335C35.8739 27.8164 35.7099 28.2224 35.383 28.5515C35.0561 28.8807 34.6507 29.0441 34.1667 29.0418H13.6667ZM6.83334 15.3752C6.34931 15.3752 5.94387 15.2112 5.61701 14.8832C5.29014 14.5552 5.12614 14.1497 5.12501 13.6668C5.12387 13.1839 5.28787 12.7785 5.61701 12.4505C5.94614 12.1225 6.35159 11.9585 6.83334 11.9585C7.31509 11.9585 7.7211 12.1225 8.05138 12.4505C8.38166 12.7785 8.54509 13.1839 8.54167 13.6668C8.53826 14.1497 8.37426 14.5557 8.04967 14.8849C7.72509 15.214 7.31964 15.3774 6.83334 15.3752ZM6.83334 22.2085C6.34931 22.2085 5.94387 22.0445 5.61701 21.7165C5.29014 21.3885 5.12614 20.9831 5.12501 20.5002C5.12387 20.0173 5.28787 19.6118 5.61701 19.2838C5.94614 18.9558 6.35159 18.7918 6.83334 18.7918C7.31509 18.7918 7.7211 18.9558 8.05138 19.2838C8.38166 19.6118 8.54509 20.0173 8.54167 20.5002C8.53826 20.9831 8.37426 21.3891 8.04967 21.7182C7.72509 22.0473 7.31964 22.2108 6.83334 22.2085ZM6.83334 29.0418C6.34931 29.0418 5.94387 28.8778 5.61701 28.5498C5.29014 28.2218 5.12614 27.8164 5.12501 27.3335C5.12387 26.8506 5.28787 26.4452 5.61701 26.1172C5.94614 25.7892 6.35159 25.6252 6.83334 25.6252C7.31509 25.6252 7.7211 25.7892 8.05138 26.1172C8.38166 26.4452 8.54509 26.8506 8.54167 27.3335C8.53826 27.8164 8.37426 28.2224 8.04967 28.5515C7.72509 28.8807 7.31964 29.0441 6.83334 29.0418Z" fill="#00104A"/>
</svg>
