<svg width="25" height="23" viewBox="0 0 25 23" fill="none" xmlns="http://www.w3.org/2000/svg">
<path d="M1.33337 3.63885C1.33337 2.95452 1.57218 2.29822 1.99727 1.81433C2.42235 1.33044 2.99888 1.05859 3.60004 1.05859H21.7334C22.3345 1.05859 22.9111 1.33044 23.3362 1.81433C23.7612 2.29822 24 2.95452 24 3.63885V19.1204C24 19.8047 23.7612 20.461 23.3362 20.9449C22.9111 21.4288 22.3345 21.7006 21.7334 21.7006H3.60004C2.99888 21.7006 2.42235 21.4288 1.99727 20.9449C1.57218 20.461 1.33337 19.8047 1.33337 19.1204V3.63885Z" stroke="#00104A" stroke-width="1.5" stroke-linecap="round" stroke-linejoin="round"/>
<path d="M1.33337 5.58984L9.83451 13.3319C10.6384 14.0641 11.6372 14.463 12.6667 14.463C13.6962 14.463 14.695 14.0641 15.4989 13.3319L24 5.58984" stroke="#00104A" stroke-width="1.5" stroke-linejoin="round"/>
</svg>
