<svg width="54" height="54" viewBox="0 0 54 54" fill="none" xmlns="http://www.w3.org/2000/svg">
<path d="M44.1 47.25L29.925 33.075C28.8 33.975 27.5063 34.6875 26.0438 35.2125C24.5813 35.7375 23.025 36 21.375 36C17.2875 36 13.8285 34.584 10.998 31.752C8.1675 28.92 6.7515 25.461 6.75 21.375C6.7485 17.289 8.1645 13.83 10.998 10.998C13.8315 8.166 17.2905 6.75 21.375 6.75C25.4595 6.75 28.9193 8.166 31.7543 10.998C34.5893 13.83 36.0045 17.289 36 21.375C36 23.025 35.7375 24.5812 35.2125 26.0437C34.6875 27.5063 33.975 28.8 33.075 29.925L47.25 44.1L44.1 47.25ZM21.375 31.5C24.1875 31.5 26.5785 30.516 28.548 28.548C30.5175 26.58 31.5015 24.189 31.5 21.375C31.4985 18.561 30.5145 16.1708 28.548 14.2043C26.5815 12.2378 24.1905 11.253 21.375 11.25C18.5595 11.247 16.1693 12.2318 14.2043 14.2043C12.2393 16.1768 11.2545 18.567 11.25 21.375C11.2455 24.183 12.2303 26.574 14.2043 28.548C16.1783 30.522 18.5685 31.506 21.375 31.5Z" fill="#00104A"/>
</svg>
