<svg width="29" height="27" viewBox="0 0 29 27" fill="none" xmlns="http://www.w3.org/2000/svg">
<path d="M8.89876 2.68613L10.2603 2.29613C11.0061 2.08193 11.8083 2.1335 12.5171 2.4412C13.226 2.7489 13.7931 3.29171 14.1126 3.96835L15.1649 6.19724C15.4396 6.77924 15.5161 7.42855 15.3837 8.05406C15.2512 8.67957 14.9165 9.2499 14.4264 9.68502L12.6834 11.2328C12.6325 11.278 12.6002 11.3391 12.5924 11.405C12.5411 11.8461 12.8549 12.705 13.5783 13.8995C14.1044 14.7672 14.5816 15.3772 14.9864 15.7184C15.2688 15.9572 15.4239 16.0084 15.4904 15.9906L17.8354 15.3072C18.4758 15.1207 19.1615 15.1297 19.7962 15.3329C20.431 15.5361 20.9831 15.9235 21.3751 16.4406L22.8696 18.4139C23.3241 19.014 23.5345 19.7508 23.4617 20.4874C23.389 21.2241 23.0381 21.9106 22.4741 22.4195L21.4404 23.3528C20.8918 23.8476 20.218 24.1986 19.4846 24.3717C18.7513 24.5448 17.9833 24.5341 17.2556 24.3406C14.0426 23.4861 11.1621 20.9039 8.58143 16.6472C5.99726 12.385 5.09076 8.71391 5.9261 5.6328C6.11414 4.93984 6.48643 4.30469 7.0071 3.78857C7.52777 3.27246 8.17926 2.89278 8.89876 2.68613ZM9.40393 4.2828C8.97235 4.40664 8.58152 4.63423 8.26909 4.94365C7.95666 5.25308 7.73315 5.63391 7.6201 6.04946C6.91776 8.64058 7.7216 11.895 10.0969 15.8139C12.4688 19.7272 15.0226 22.0161 17.7269 22.7361C18.1634 22.8519 18.624 22.8581 19.0637 22.7541C19.5035 22.6502 19.9075 22.4396 20.2364 22.1428L21.2713 21.2095C21.5277 20.9781 21.6873 20.666 21.7203 20.3311C21.7534 19.9961 21.6576 19.6611 21.4509 19.3884L19.9576 17.4161C19.7794 17.1808 19.5283 17.0045 19.2395 16.9121C18.9508 16.8196 18.6389 16.8156 18.3476 16.9006L15.9968 17.5861C14.6318 17.9728 13.3928 16.9272 12.0628 14.7328C11.1668 13.255 10.7491 12.1106 10.8529 11.2206C10.9078 10.7584 11.1329 10.3317 11.4899 10.0139L13.2329 8.46613C13.4558 8.26837 13.608 8.00911 13.6683 7.72474C13.7286 7.44038 13.6938 7.14518 13.5689 6.88057L12.5166 4.65169C12.3714 4.34436 12.1138 4.09781 11.7918 3.95798C11.4698 3.81816 11.1055 3.79459 10.7666 3.89169L9.40393 4.2828Z" fill="#00104A"/>
</svg>
