<svg width="27" height="26" viewBox="0 0 27 26" fill="none" xmlns="http://www.w3.org/2000/svg">
<path d="M27 3.005C26.0193 3.5128 24.9659 3.85591 23.8584 4.011C25.0011 3.21195 25.856 1.95434 26.2636 0.472833C25.19 1.21806 24.015 1.74261 22.7896 2.0237C21.9656 0.99555 20.8742 0.314077 19.6848 0.0850812C18.4954 -0.143914 17.2746 0.0923792 16.2119 0.757276C15.1492 1.42217 14.3041 2.47847 13.8078 3.76218C13.3114 5.04589 13.1916 6.48518 13.467 7.85659C11.2916 7.72895 9.16343 7.06819 7.22068 5.9172C5.27793 4.7662 3.56399 3.1507 2.19009 1.17553C1.72032 2.12251 1.4502 3.22047 1.4502 4.38979C1.44967 5.44245 1.6715 6.47899 2.09599 7.40744C2.52049 8.33588 3.13452 9.12753 3.88362 9.71214C3.01487 9.67984 2.16528 9.40551 1.40557 8.912V8.99435C1.40548 10.4707 1.8425 11.9017 2.64246 13.0444C3.44243 14.1872 4.55607 14.9713 5.79443 15.2637C4.98851 15.5186 4.14357 15.5561 3.32342 15.3735C3.67281 16.6438 4.35339 17.7547 5.26988 18.5506C6.18638 19.3465 7.2929 19.7875 8.43455 19.812C6.49654 21.5899 4.10311 22.5542 1.63928 22.55C1.20284 22.5501 0.766768 22.5204 0.333313 22.4608C2.83424 24.3399 5.7455 25.3372 8.71876 25.3333C18.7836 25.3333 24.2859 15.5917 24.2859 7.14292C24.2859 6.86843 24.28 6.5912 24.2694 6.31671C25.3397 5.41223 26.2635 4.29221 26.9976 3.00911L27 3.005Z" fill="#00104A" fill-opacity="0.5"/>
</svg>
